<?xml version="1.0" encoding="UTF-8" standalone="no"?>
<!-- Created with Inkscape (http://www.inkscape.org/) -->

<svg
   width="450"
   height="144.621"
   viewBox="0 0 119.0625 38.264307"
   version="1.1"
   id="svg1"
   xml:space="preserve"
   inkscape:version="1.4 (86a8ad7, 2024-10-11)"
   sodipodi:docname="logo-web.svg"
   inkscape:export-filename="Logo.png"
   inkscape:export-xdpi="480"
   inkscape:export-ydpi="480"
   xmlns:inkscape="http://www.inkscape.org/namespaces/inkscape"
   xmlns:sodipodi="http://sodipodi.sourceforge.net/DTD/sodipodi-0.dtd"
   xmlns="http://www.w3.org/2000/svg"
   xmlns:svg="http://www.w3.org/2000/svg"><sodipodi:namedview
     id="namedview1"
     pagecolor="#505050"
     bordercolor="#eeeeee"
     borderopacity="1"
     inkscape:showpageshadow="0"
     inkscape:pageopacity="0"
     inkscape:pagecheckerboard="0"
     inkscape:deskcolor="#505050"
     inkscape:document-units="px"
     inkscape:zoom="1.4520904"
     inkscape:cx="151.50572"
     inkscape:cy="29.26815"
     inkscape:window-width="1920"
     inkscape:window-height="1017"
     inkscape:window-x="-8"
     inkscape:window-y="-8"
     inkscape:window-maximized="1"
     inkscape:current-layer="layer1" /><defs
     id="defs1">
	
	

		
		
		
		
		
		
		
		
		
		
		
		
		
		
	</defs><g
     inkscape:label="Layer 1"
     inkscape:groupmode="layer"
     id="layer1"><g
       id="g1"
       transform="matrix(1.3147364,0,0,1.3147364,-144.99922,-23.879264)"><rect
         style="opacity:1;fill:#ffffff;fill-opacity:1;stroke:none;stroke-width:0.474984"
         id="rect8"
         width="90.559677"
         height="29.104166"
         x="110.28783"
         y="18.162777"
         ry="0"
         inkscape:export-filename="Logo-1.png"
         inkscape:export-xdpi="480"
         inkscape:export-ydpi="480" /><rect
         style="opacity:1;fill:#c80000;fill-opacity:1;stroke:none;stroke-width:0.314441"
         id="rect1"
         width="39.6875"
         height="29.104166"
         x="110.28783"
         y="18.162777"
         ry="0"
         inkscape:export-filename="Logo.png"
         inkscape:export-xdpi="480"
         inkscape:export-ydpi="480" /><text
         xml:space="preserve"
         style="font-size:16.1503px;text-align:start;letter-spacing:0.897603px;writing-mode:lr-tb;direction:ltr;text-anchor:start;fill:#ffffff;stroke:#ffffff;stroke-width:0.0537655;stroke-dasharray:none"
         x="113.55683"
         y="38.483387"
         id="text3"><tspan
           sodipodi:role="line"
           id="tspan3"
           style="font-style:normal;font-variant:normal;font-weight:bold;font-stretch:normal;font-size:16.1503px;font-family:'Open Sans';-inkscape-font-specification:'Open Sans Bold';letter-spacing:0.897603px;fill:#ffffff;stroke:#ffffff;stroke-width:0.0537655;stroke-dasharray:none"
           x="113.55683"
           y="38.483387">ADS</tspan></text><g
         id="g8"
         transform="matrix(0.60371398,0,0,0.60371398,59.0072,14.286753)"
         style="fill:#000000;stroke:#000000"><path
           style="font-size:11.9128px;font-family:Serif;-inkscape-font-specification:Serif;letter-spacing:0px;fill:#000000;stroke:#000000;stroke-width:0.0856277"
           d="m 159.16792,26.759728 -0.45371,1.250611 q -0.0524,0.139603 -0.0814,0.279206 -0.0291,0.133786 -0.0291,0.232672 0,0.302473 0.19195,0.442077 0.19778,0.139603 0.59913,0.139603 h 0.27339 v 0.500244 h -2.90839 v -0.500244 h 0.22685 q 0.1745,0 0.29666,-0.0349 0.12215,-0.04072 0.22104,-0.14542 0.0989,-0.104702 0.18613,-0.285023 0.0931,-0.180321 0.20359,-0.465344 l 2.64083,-7.073225 h 0.93068 l 2.69318,7.369882 q 0.0698,0.186137 0.1396,0.30829 0.0756,0.122153 0.17451,0.197771 0.0989,0.0698 0.22685,0.09889 0.12797,0.02908 0.30248,0.02908 h 0.15705 v 0.500244 h -3.27486 v -0.500244 h 0.27339 q 0.71547,0 0.71547,-0.570046 0,-0.09889 -0.0291,-0.203588 -0.0233,-0.104703 -0.0698,-0.238489 l -0.47697,-1.332046 z m 2.17548,-2.681544 q -0.18614,-0.529328 -0.34319,-0.988855 -0.15124,-0.465344 -0.25012,-0.895787 -0.0407,0.215222 -0.0989,0.418809 -0.0523,0.197772 -0.11633,0.407176 -0.064,0.209405 -0.14542,0.442077 -0.0814,0.226855 -0.18614,0.506061 l -0.80854,2.192933 h 2.68736 z m 9.13237,-0.825985 1.19245,3.530796 q 0.0698,0.215221 0.14542,0.465344 0.0814,0.244305 0.15123,0.48861 0.0698,0.238489 0.12797,0.453711 0.0582,0.215221 0.0873,0.366458 h 0.0349 q 0.0524,-0.296657 0.16869,-0.7271 0.11634,-0.43626 0.29666,-1.012122 l 0.59331,-1.919543 q 0.0465,-0.151237 0.0756,-0.319924 0.0349,-0.174504 0.0349,-0.27339 0,-0.30829 -0.19777,-0.447893 -0.19195,-0.139603 -0.59331,-0.139603 h -0.0814 v -0.500245 h 2.54776 v 0.500245 h -0.15124 q -0.1745,0 -0.30247,0.0349 -0.12797,0.0349 -0.23267,0.139603 -0.0989,0.09888 -0.18614,0.279206 -0.0873,0.180321 -0.1745,0.476977 l -1.53564,4.955911 h -0.95395 l -1.4193,-4.19391 -0.21522,-0.785268 -1.68687,4.979178 h -0.94233 l -1.5589,-5.252567 q -0.0698,-0.186138 -0.14542,-0.308291 -0.0756,-0.122152 -0.1745,-0.191954 -0.0989,-0.07562 -0.22686,-0.104702 -0.12797,-0.02908 -0.30247,-0.02908 h -0.0349 v -0.500245 h 2.9433 v 0.500245 h -0.15706 q -0.35482,0 -0.53514,0.104702 -0.18032,0.104703 -0.18032,0.395542 0,0.09889 0.0291,0.238489 0.0349,0.139603 0.0698,0.27339 l 0.55842,2.000978 q 0.0582,0.215221 0.12215,0.47116 0.064,0.255939 0.11634,0.511878 0.0582,0.250123 0.1047,0.471161 0.0465,0.221038 0.0756,0.372275 h 0.0349 q 0.0291,-0.151237 0.0756,-0.349008 0.0523,-0.203588 0.11633,-0.430443 0.0698,-0.232672 0.14542,-0.47116 0.0756,-0.238489 0.15124,-0.453711 l 1.23898,-3.600597 z m 6.34613,4.624354 q 0,0.558412 0.23267,0.837618 0.23849,0.27339 0.73292,0.27339 0.36064,0 0.65148,-0.116336 0.29665,-0.116336 0.50024,-0.331558 0.20941,-0.215221 0.31992,-0.523511 0.11052,-0.308291 0.11052,-0.686382 v -0.965589 l -0.762,0.0349 q -0.50606,0.02327 -0.84925,0.12797 -0.33737,0.09888 -0.54678,0.285023 -0.2094,0.18032 -0.30247,0.447893 -0.0873,0.267573 -0.0873,0.616581 z m 1.44256,-4.182277 q -0.34319,0 -0.55841,0.09889 -0.2094,0.09307 -0.33156,0.267573 -0.11633,0.174504 -0.15705,0.412992 -0.0407,0.238489 -0.0407,0.517695 -0.49443,0 -0.75618,-0.168687 -0.25594,-0.168687 -0.25594,-0.581679 0,-0.308291 0.16869,-0.523512 0.16868,-0.215222 0.45952,-0.349008 0.29666,-0.139603 0.68638,-0.203588 0.38973,-0.06399 0.83181,-0.06399 0.54678,0 0.95395,0.11052 0.40718,0.104702 0.68057,0.349007 0.27339,0.244306 0.40717,0.639848 0.13961,0.389725 0.13961,0.959771 v 3.08872 q 0,0.250122 0.0407,0.412992 0.0407,0.16287 0.12797,0.261756 0.0873,0.09889 0.22686,0.139603 0.14542,0.04072 0.34319,0.04072 h 0.0349 v 0.500244 h -1.61125 l -0.18614,-1.023756 h -0.0989 q -0.18613,0.250122 -0.36064,0.459527 -0.1745,0.209405 -0.38391,0.360641 -0.2094,0.151237 -0.47697,0.232672 -0.26176,0.08725 -0.63403,0.08725 -0.39555,0 -0.73874,-0.116336 -0.33737,-0.110519 -0.58749,-0.343191 -0.24431,-0.238488 -0.38391,-0.593313 -0.13961,-0.360641 -0.13961,-0.849252 0,-0.948138 0.67475,-1.407665 0.67475,-0.459527 2.0417,-0.500245 l 0.98885,-0.0349 v -0.715466 q 0,-0.319923 -0.0349,-0.587496 -0.0349,-0.273389 -0.15123,-0.465344 -0.11634,-0.197771 -0.33738,-0.302473 -0.21522,-0.110519 -0.58168,-0.110519 z m 3.94379,5.409621 q 0.19777,0 0.37228,-0.02327 0.18032,-0.02908 0.3141,-0.11052 0.13379,-0.08143 0.20941,-0.238488 0.0814,-0.162871 0.0814,-0.424626 v -3.775102 q 0,-0.261755 -0.0814,-0.418809 -0.0756,-0.16287 -0.20941,-0.250122 -0.13378,-0.08725 -0.3141,-0.116336 -0.17451,-0.02908 -0.37228,-0.02908 h -0.0349 v -0.500245 h 2.12895 v 5.03153 q 0,0.279206 0.0756,0.447893 0.0814,0.168687 0.2094,0.261756 0.13379,0.08725 0.31411,0.116336 0.18032,0.02908 0.37809,0.02908 h 0.15705 v 0.500244 h -3.38537 v -0.500244 z m 0.80854,-7.817775 q 0,-0.209405 0.0524,-0.349008 0.0523,-0.139603 0.14542,-0.226855 0.0931,-0.08725 0.21522,-0.122153 0.12215,-0.0349 0.26757,-0.0349 0.13961,0 0.26176,0.0349 0.12215,0.0349 0.2094,0.122153 0.0931,0.08725 0.14542,0.226855 0.0582,0.139603 0.0582,0.349008 0,0.209405 -0.0582,0.349008 -0.0523,0.139603 -0.14542,0.226855 -0.0873,0.08725 -0.2094,0.127969 -0.12215,0.0349 -0.26176,0.0349 -0.14542,0 -0.26757,-0.0349 -0.12215,-0.04072 -0.21522,-0.127969 -0.0931,-0.08725 -0.14542,-0.226855 -0.0524,-0.139603 -0.0524,-0.349008 z m 5.07224,8.434355 q -0.44789,0 -0.81435,-0.08143 -0.36064,-0.07562 -0.61658,-0.232672 -0.25594,-0.16287 -0.39554,-0.395542 -0.1396,-0.238489 -0.1396,-0.552596 0,-0.238488 0.0756,-0.395542 0.0814,-0.16287 0.19196,-0.255939 0.11633,-0.09307 0.2443,-0.12797 0.13379,-0.04072 0.23849,-0.04072 0,0.314107 0.064,0.587496 0.064,0.27339 0.21522,0.482795 0.15124,0.203587 0.39554,0.32574 0.25012,0.116336 0.61076,0.116336 0.31993,0 0.56423,-0.07562 0.24431,-0.08143 0.40718,-0.221039 0.16869,-0.145419 0.25594,-0.343191 0.0873,-0.203587 0.0873,-0.442076 0,-0.221038 -0.0698,-0.378092 -0.064,-0.16287 -0.23267,-0.302473 -0.16287,-0.139603 -0.4479,-0.285023 -0.28502,-0.14542 -0.71546,-0.331558 -0.45953,-0.203588 -0.80272,-0.389725 -0.33737,-0.191954 -0.55841,-0.412993 -0.22104,-0.221038 -0.33156,-0.500244 -0.11052,-0.285023 -0.11052,-0.674749 0,-0.407175 0.15705,-0.721283 0.16287,-0.314107 0.45953,-0.523511 0.29666,-0.215222 0.70965,-0.325741 0.41299,-0.110519 0.91905,-0.110519 0.42463,0 0.75037,0.08725 0.32574,0.08725 0.54678,0.238489 0.22104,0.14542 0.33156,0.349007 0.11052,0.197772 0.11052,0.41881 0,0.32574 -0.22686,0.523512 -0.22104,0.191954 -0.63403,0.191954 0,-0.59913 -0.25012,-0.930688 -0.24431,-0.331557 -0.77364,-0.331557 -0.30247,0 -0.51769,0.0698 -0.21522,0.0698 -0.35482,0.197772 -0.13379,0.127969 -0.19778,0.302473 -0.064,0.174504 -0.064,0.383909 0,0.226855 0.0814,0.395542 0.0814,0.16287 0.25594,0.302473 0.18032,0.139603 0.45953,0.27339 0.28502,0.127969 0.68057,0.290839 0.47116,0.197772 0.80853,0.389726 0.33737,0.191954 0.5526,0.418809 0.22103,0.226855 0.32574,0.511878 0.1047,0.285023 0.1047,0.657298 0,0.465344 -0.16869,0.814352 -0.16869,0.349008 -0.47698,0.587496 -0.30829,0.232672 -0.74455,0.349008 -0.43044,0.116336 -0.95977,0.116336 z m 13.94868,-4.380048 q 0,0.977222 -0.2443,1.768306 -0.24431,0.785268 -0.7271,1.34368 -0.4828,0.552596 -1.2099,0.85507 -0.7271,0.296656 -1.6985,0.296656 h -3.64713 v -0.500244 h 0.15123 q 0.20359,0 0.3781,-0.02908 0.18032,-0.02908 0.3141,-0.116336 0.13379,-0.09307 0.20941,-0.261756 0.0756,-0.168687 0.0756,-0.447893 v -5.840064 q 0,-0.261756 -0.0814,-0.41881 -0.0756,-0.16287 -0.2094,-0.250122 -0.13379,-0.08725 -0.31411,-0.110519 -0.1745,-0.02908 -0.37228,-0.02908 h -0.15123 v -0.500245 h 3.64713 q 0.91905,0 1.64034,0.285023 0.72128,0.279207 1.21571,0.820169 0.50024,0.540962 0.762,1.332046 0.26175,0.791085 0.26175,1.803207 z m -4.15901,3.658765 q 0.70965,0 1.23898,-0.238488 0.53515,-0.244306 0.88997,-0.70965 0.35483,-0.465343 0.52933,-1.145908 0.18032,-0.680566 0.18032,-1.564719 0,-1.774123 -0.70965,-2.710627 -0.70383,-0.936504 -2.11731,-0.936504 h -1.04703 v 7.305896 z m 5.27002,0.104703 q 0.19777,0 0.37227,-0.02327 0.18033,-0.02908 0.31411,-0.11052 0.13379,-0.08143 0.20941,-0.238488 0.0814,-0.162871 0.0814,-0.424626 v -3.775102 q 0,-0.261755 -0.0814,-0.418809 -0.0756,-0.16287 -0.20941,-0.250122 -0.13378,-0.08725 -0.31411,-0.116336 -0.1745,-0.02908 -0.37227,-0.02908 h -0.0349 v -0.500245 h 2.12895 v 5.03153 q 0,0.279206 0.0756,0.447893 0.0814,0.168687 0.2094,0.261756 0.13379,0.08725 0.31411,0.116336 0.18032,0.02908 0.37809,0.02908 h 0.15705 v 0.500244 h -3.38537 v -0.500244 z m 0.80853,-7.817775 q 0,-0.209405 0.0524,-0.349008 0.0523,-0.139603 0.14542,-0.226855 0.0931,-0.08725 0.21522,-0.122153 0.12215,-0.0349 0.26757,-0.0349 0.1396,0 0.26176,0.0349 0.12215,0.0349 0.2094,0.122153 0.0931,0.08725 0.14542,0.226855 0.0582,0.139603 0.0582,0.349008 0,0.209405 -0.0582,0.349008 -0.0523,0.139603 -0.14542,0.226855 -0.0873,0.08725 -0.2094,0.127969 -0.12216,0.0349 -0.26176,0.0349 -0.14542,0 -0.26757,-0.0349 -0.12216,-0.04072 -0.21522,-0.127969 -0.0931,-0.08725 -0.14542,-0.226855 -0.0524,-0.139603 -0.0524,-0.349008 z m 8.83572,2.181299 q 0,0.127969 -0.0407,0.244305 -0.0349,0.110519 -0.11052,0.197771 -0.0756,0.08143 -0.19777,0.133786 -0.11634,0.04654 -0.27921,0.04654 0,-0.0698 -0.0174,-0.139603 -0.0174,-0.0698 -0.064,-0.12797 -0.0407,-0.06398 -0.11634,-0.09888 -0.0756,-0.04072 -0.19777,-0.04072 -0.15123,0 -0.27339,0.0349 -0.12215,0.0349 -0.23849,0.110519 0.20359,0.250122 0.33156,0.593313 0.13379,0.337375 0.13379,0.849253 0,0.442076 -0.13379,0.820168 -0.13378,0.372275 -0.40136,0.645664 -0.26175,0.27339 -0.66893,0.430443 -0.40136,0.151237 -0.94232,0.151237 -0.0698,0 -0.15705,0 -0.0873,-0.0058 -0.17451,-0.0058 -0.0873,-0.0058 -0.16287,-0.01163 -0.0756,-0.01163 -0.12215,-0.01745 -0.11634,0.05817 -0.22104,0.12797 -0.1047,0.0698 -0.18614,0.157053 -0.0756,0.08725 -0.12215,0.197771 -0.0465,0.11052 -0.0465,0.244306 0,0.14542 0.0524,0.232672 0.0582,0.08725 0.15705,0.139603 0.0989,0.04653 0.23267,0.06398 0.13961,0.01163 0.29666,0.01163 h 1.3495 q 0.53514,0 0.90742,0.133787 0.37227,0.133786 0.60494,0.372275 0.23849,0.232671 0.34319,0.564229 0.11052,0.32574 0.11052,0.709649 0,0.511878 -0.19195,0.924871 -0.18614,0.412992 -0.57586,0.698015 -0.38973,0.29084 -0.98886,0.447894 -0.59331,0.157053 -1.40185,0.157053 -1.24479,0 -1.86137,-0.459527 -0.61658,-0.459527 -0.61658,-1.279695 0,-0.349008 0.12215,-0.610764 0.12215,-0.261756 0.32574,-0.447893 0.20941,-0.186137 0.47698,-0.302473 0.26757,-0.116336 0.56423,-0.168688 -0.12215,-0.05235 -0.23849,-0.139603 -0.11634,-0.08725 -0.20941,-0.209404 -0.0931,-0.122153 -0.15123,-0.279207 -0.0582,-0.157053 -0.0582,-0.349007 0,-0.354825 0.18614,-0.610764 0.18613,-0.261756 0.59331,-0.506061 -0.25594,-0.104703 -0.45953,-0.285023 -0.19777,-0.186138 -0.33737,-0.41881 -0.13379,-0.238488 -0.20941,-0.517695 -0.0698,-0.279206 -0.0698,-0.575863 0,-0.517695 0.13961,-0.92487 0.1396,-0.407176 0.41881,-0.692199 0.2792,-0.285023 0.69801,-0.43626 0.41881,-0.151237 0.98304,-0.151237 0.21522,0 0.42463,0.0349 0.2094,0.02908 0.3839,0.08725 0.18033,0.05235 0.31993,0.122153 0.14542,0.0698 0.23267,0.14542 0.0873,-0.09307 0.20359,-0.203588 0.11633,-0.116336 0.26175,-0.209405 0.14542,-0.09888 0.31411,-0.16287 0.1745,-0.06398 0.37228,-0.06398 0.18032,0 0.30829,0.05235 0.13378,0.04653 0.22103,0.133787 0.0873,0.08143 0.12797,0.197771 0.0465,0.110519 0.0465,0.232672 z m -5.02571,7.183744 q 0,0.261756 0.0698,0.488611 0.0698,0.226855 0.2443,0.389725 0.17451,0.16287 0.47116,0.255939 0.29666,0.09307 0.75037,0.09307 0.63985,0 1.05284,-0.110519 0.41881,-0.104703 0.66312,-0.296657 0.2443,-0.191954 0.34319,-0.459527 0.0989,-0.261756 0.0989,-0.575863 0,-0.273389 -0.0814,-0.45371 -0.0756,-0.174504 -0.23267,-0.279206 -0.15124,-0.09889 -0.3781,-0.139603 -0.22685,-0.04072 -0.52351,-0.04072 h -1.16917 q -0.25013,0 -0.48862,0.04653 -0.23267,0.04072 -0.4188,0.162871 -0.18033,0.122152 -0.29084,0.343191 -0.11052,0.221038 -0.11052,0.575863 z m 0.69219,-5.380537 q 0,0.762 0.25013,1.116825 0.25594,0.354824 0.8318,0.354824 0.29084,0 0.48861,-0.08725 0.20359,-0.08725 0.33156,-0.267572 0.12797,-0.180321 0.18032,-0.459527 0.0582,-0.285023 0.0582,-0.674749 0,-0.802718 -0.24431,-1.186626 -0.2443,-0.383909 -0.82598,-0.383909 -0.57587,0 -0.82599,0.395542 -0.24431,0.389726 -0.24431,1.192444 z m 4.90938,3.833269 q 0.19777,0 0.37228,-0.02327 0.18032,-0.02908 0.3141,-0.11052 0.13379,-0.08143 0.20941,-0.238488 0.0814,-0.162871 0.0814,-0.424626 v -3.775102 q 0,-0.261755 -0.0814,-0.418809 -0.0756,-0.16287 -0.20941,-0.250122 -0.13378,-0.08725 -0.3141,-0.116336 -0.17451,-0.02908 -0.37228,-0.02908 h -0.0349 v -0.500245 h 2.12895 v 5.03153 q 0,0.279206 0.0756,0.447893 0.0814,0.168687 0.2094,0.261756 0.13379,0.08725 0.31411,0.116336 0.18032,0.02908 0.37809,0.02908 h 0.15705 v 0.500244 h -3.38537 v -0.500244 z m 0.80854,-7.817775 q 0,-0.209405 0.0523,-0.349008 0.0524,-0.139603 0.14542,-0.226855 0.0931,-0.08725 0.21522,-0.122153 0.12215,-0.0349 0.26757,-0.0349 0.1396,0 0.26176,0.0349 0.12215,0.0349 0.2094,0.122153 0.0931,0.08725 0.14542,0.226855 0.0582,0.139603 0.0582,0.349008 0,0.209405 -0.0582,0.349008 -0.0524,0.139603 -0.14542,0.226855 -0.0873,0.08725 -0.2094,0.127969 -0.12216,0.0349 -0.26176,0.0349 -0.14542,0 -0.26757,-0.0349 -0.12215,-0.04072 -0.21522,-0.127969 -0.0931,-0.08725 -0.14542,-0.226855 -0.0523,-0.139603 -0.0523,-0.349008 z m 5.72954,7.806141 q 0.21522,0 0.39554,-0.02327 0.18032,-0.02327 0.36646,-0.05817 v 0.523512 q -0.0756,0.0349 -0.19777,0.0698 -0.12215,0.0349 -0.26757,0.05817 -0.13961,0.02908 -0.29666,0.04072 -0.15705,0.01745 -0.29666,0.01745 -0.45371,0 -0.77945,-0.09888 -0.32574,-0.09307 -0.53514,-0.308291 -0.20941,-0.215221 -0.31411,-0.570046 -0.0989,-0.354824 -0.0989,-0.866702 v -3.978689 h -0.90742 v -0.476978 q 0.21522,0 0.47116,-0.08725 0.26175,-0.08725 0.45952,-0.29084 0.20359,-0.221038 0.32574,-0.523511 0.12797,-0.30829 0.22104,-0.767817 h 0.54678 v 1.465832 h 1.5589 v 0.680566 h -1.5589 v 4.013589 q 0,0.610764 0.24431,0.895787 0.25012,0.285023 0.66311,0.285023 z m 2.78624,-1.21571 q 0,0.558412 0.23268,0.837618 0.23849,0.27339 0.73291,0.27339 0.36064,0 0.65148,-0.116336 0.29666,-0.116336 0.50025,-0.331558 0.2094,-0.215221 0.31992,-0.523511 0.11052,-0.308291 0.11052,-0.686382 v -0.965589 l -0.762,0.0349 q -0.50606,0.02327 -0.84925,0.12797 -0.33738,0.09888 -0.54678,0.285023 -0.2094,0.18032 -0.30247,0.447893 -0.0873,0.267573 -0.0873,0.616581 z m 1.44257,-4.182277 q -0.34319,0 -0.55841,0.09889 -0.20941,0.09307 -0.33156,0.267573 -0.11634,0.174504 -0.15705,0.412992 -0.0407,0.238489 -0.0407,0.517695 -0.49443,0 -0.75618,-0.168687 -0.25594,-0.168687 -0.25594,-0.581679 0,-0.308291 0.16868,-0.523512 0.16869,-0.215222 0.45953,-0.349008 0.29666,-0.139603 0.68638,-0.203588 0.38973,-0.06399 0.8318,-0.06399 0.54678,0 0.95396,0.11052 0.40718,0.104702 0.68056,0.349007 0.27339,0.244306 0.40718,0.639848 0.1396,0.389725 0.1396,0.959771 v 3.08872 q 0,0.250122 0.0407,0.412992 0.0407,0.16287 0.12797,0.261756 0.0873,0.09889 0.22686,0.139603 0.14542,0.04072 0.34319,0.04072 h 0.0349 v 0.500244 h -1.61126 l -0.18613,-1.023756 h -0.0989 q -0.18614,0.250122 -0.36064,0.459527 -0.1745,0.209405 -0.38391,0.360641 -0.2094,0.151237 -0.47698,0.232672 -0.26175,0.08725 -0.63403,0.08725 -0.39554,0 -0.73873,-0.116336 -0.33737,-0.110519 -0.5875,-0.343191 -0.2443,-0.238488 -0.3839,-0.593313 -0.13961,-0.360641 -0.13961,-0.849252 0,-0.948138 0.67475,-1.407665 0.67475,-0.459527 2.0417,-0.500245 l 0.98885,-0.0349 v -0.715466 q 0,-0.319923 -0.0349,-0.587496 -0.0349,-0.273389 -0.15124,-0.465344 -0.11633,-0.197771 -0.33737,-0.302473 -0.21522,-0.110519 -0.58168,-0.110519 z m 3.82164,5.409621 q 0.20359,0 0.37809,-0.02908 0.18032,-0.02908 0.30829,-0.116336 0.13379,-0.09307 0.20941,-0.261756 0.0814,-0.168687 0.0814,-0.447893 v -6.386843 q 0,-0.261756 -0.0814,-0.41881 -0.0756,-0.16287 -0.20941,-0.250122 -0.13378,-0.08725 -0.3141,-0.110519 -0.17451,-0.02908 -0.37228,-0.02908 h -0.15124 v -0.500245 h 2.2511 v 7.695623 q 0,0.279206 0.0756,0.447893 0.0756,0.168687 0.20941,0.261756 0.13378,0.08725 0.30829,0.116336 0.18032,0.02908 0.38391,0.02908 h 0.15123 v 0.500244 h -3.37956 v -0.500244 z"
           id="path7" /><path
           style="font-size:11.9128px;font-family:Serif;-inkscape-font-specification:Serif;letter-spacing:0px;fill:#000000;stroke:#000000;stroke-width:0.0856277"
           d="m 159.70306,40.495924 q -0.58167,0 -1.02957,-0.122152 -0.44207,-0.122153 -0.74455,-0.337375 -0.29665,-0.221038 -0.44789,-0.529328 -0.15124,-0.314107 -0.15124,-0.686382 0,-0.360641 0.22104,-0.58168 0.22686,-0.221038 0.63985,-0.221038 0.0174,0.372275 0.11052,0.715466 0.0989,0.343191 0.29084,0.604947 0.19195,0.261756 0.48861,0.418809 0.29665,0.157054 0.71546,0.157054 0.80272,0 1.25061,-0.383909 0.45372,-0.389725 0.45372,-1.116825 0,-0.32574 -0.0931,-0.575863 -0.0931,-0.250122 -0.30829,-0.459527 -0.21523,-0.215221 -0.57005,-0.407175 -0.34901,-0.197772 -0.87252,-0.412993 -0.5526,-0.226855 -0.96559,-0.482794 -0.41299,-0.261756 -0.68638,-0.575863 -0.27339,-0.319924 -0.40718,-0.709649 -0.13378,-0.389726 -0.13378,-0.878337 0,-0.511878 0.19195,-0.913237 0.19777,-0.401359 0.54678,-0.674748 0.34901,-0.279206 0.82599,-0.424626 0.47697,-0.14542 1.0412,-0.14542 0.53515,0 0.94814,0.110519 0.41299,0.110519 0.69802,0.296657 0.28502,0.186137 0.43044,0.430443 0.15124,0.238488 0.15124,0.500244 0,0.383909 -0.25594,0.58168 -0.25013,0.191954 -0.68057,0.191954 0,-0.279206 -0.0698,-0.546779 -0.064,-0.273389 -0.22104,-0.482794 -0.15705,-0.215221 -0.41299,-0.349008 -0.25594,-0.133786 -0.63403,-0.133786 -0.34319,0 -0.61658,0.09888 -0.26757,0.09307 -0.45371,0.27339 -0.18614,0.174504 -0.28503,0.424626 -0.0989,0.250122 -0.0989,0.558413 0,0.354824 0.0931,0.628214 0.0931,0.267572 0.30829,0.488611 0.22104,0.215221 0.57586,0.412992 0.35483,0.191954 0.87252,0.401359 0.52351,0.215222 0.93069,0.45371 0.41299,0.238489 0.69801,0.535146 0.28503,0.290839 0.43626,0.657298 0.15124,0.360641 0.15124,0.820168 0,0.564229 -0.2094,1.012123 -0.20359,0.442076 -0.5875,0.750366 -0.38391,0.308291 -0.92487,0.471161 -0.54096,0.157053 -1.2099,0.157053 z m 6.81147,-5.979667 q -0.66311,0 -1.02375,0.540962 -0.35483,0.535146 -0.41881,1.570536 h 2.73971 q 0,-0.471161 -0.0698,-0.860886 -0.0698,-0.389726 -0.22104,-0.668932 -0.15124,-0.279206 -0.40136,-0.430443 -0.2443,-0.151237 -0.60495,-0.151237 z m 0.14542,5.979667 q -0.64566,0 -1.16336,-0.215221 -0.51187,-0.221038 -0.8667,-0.639848 -0.35482,-0.418809 -0.54678,-1.023756 -0.18613,-0.610764 -0.18613,-1.384398 0,-1.66942 0.68638,-2.512856 0.68638,-0.843435 1.95444,-0.843435 0.57586,0 1.03539,0.18032 0.45953,0.180321 0.77945,0.540962 0.31993,0.354825 0.48861,0.88997 0.17451,0.529329 0.17451,1.233161 v 0.546779 h -3.96706 q 0.0116,0.651481 0.12797,1.122642 0.12215,0.465344 0.34319,0.767817 0.22686,0.302474 0.5526,0.447893 0.32574,0.139604 0.75036,0.139604 0.30829,0 0.57005,-0.0698 0.26757,-0.0698 0.48279,-0.186137 0.21523,-0.116336 0.3781,-0.261756 0.16868,-0.151237 0.27339,-0.314107 0.0814,0.0349 0.15123,0.14542 0.0756,0.110519 0.0756,0.261755 0,0.180321 -0.12797,0.389726 -0.12797,0.203588 -0.38972,0.378092 -0.26176,0.174504 -0.6573,0.290839 -0.38973,0.116336 -0.91906,0.116336 z m 6.78821,-0.116336 h -3.43773 v -0.500244 h 0.0349 q 0.20359,0 0.37809,-0.02908 0.18032,-0.02908 0.30829,-0.116336 0.13379,-0.09307 0.20941,-0.261756 0.0814,-0.168687 0.0814,-0.447893 v -3.716933 q 0,-0.261756 -0.0814,-0.41881 -0.0756,-0.16287 -0.20941,-0.250122 -0.13378,-0.08725 -0.3141,-0.116336 -0.17451,-0.02908 -0.37228,-0.02908 h -0.0349 v -0.500244 h 1.83229 l 0.22686,1.180809 h 0.0582 q 0.11634,-0.267572 0.23849,-0.500244 0.12215,-0.238489 0.29666,-0.412993 0.18032,-0.18032 0.44208,-0.279206 0.26175,-0.104702 0.65729,-0.104702 0.65148,0 0.96559,0.226855 0.31993,0.226855 0.31993,0.639847 0,0.186138 -0.064,0.343191 -0.0582,0.157054 -0.19195,0.27339 -0.13379,0.110519 -0.34319,0.174504 -0.20941,0.05817 -0.51188,0.05817 0,-0.494428 -0.13961,-0.70965 -0.1396,-0.221038 -0.48861,-0.221038 -0.22104,0 -0.39554,0.12797 -0.1745,0.122152 -0.30829,0.331557 -0.12797,0.203588 -0.22104,0.471161 -0.0873,0.267572 -0.14542,0.552595 -0.0523,0.279207 -0.0756,0.558413 -0.0233,0.279206 -0.0233,0.506061 v 1.873009 q 0,0.261756 0.0756,0.424626 0.0814,0.157053 0.21522,0.238489 0.13378,0.08143 0.30829,0.110519 0.18032,0.02327 0.37809,0.02327 h 0.33156 z m 1.82647,-5.886598 v -0.500244 h 2.9782 v 0.500244 h -0.15124 q -0.36064,0 -0.54096,0.139603 -0.1745,0.139603 -0.1745,0.43626 0,0.09889 0.0233,0.203588 0.0233,0.09889 0.0698,0.232672 l 0.80853,2.2511 q 0.0756,0.209405 0.15705,0.465344 0.0814,0.250122 0.15124,0.494428 0.0756,0.244305 0.13379,0.465343 0.0582,0.215222 0.0814,0.366459 h 0.0407 q 0.0291,-0.12797 0.0931,-0.314108 0.0698,-0.191954 0.15124,-0.412992 0.0872,-0.226855 0.1745,-0.459527 0.0931,-0.232672 0.1745,-0.447893 l 0.85507,-2.320902 q 0.0582,-0.14542 0.0814,-0.279207 0.0291,-0.133786 0.0291,-0.232671 0,-0.308291 -0.19777,-0.447894 -0.19195,-0.139603 -0.5875,-0.139603 h -0.0872 v -0.500244 h 2.55358 v 0.500244 h -0.14542 q -0.17451,0 -0.29666,0.04072 -0.12215,0.0349 -0.22104,0.139603 -0.0989,0.104702 -0.19195,0.285023 -0.0873,0.180321 -0.19777,0.465344 l -1.87883,4.95591 h -1.08774 l -1.91373,-5.252567 q -0.0698,-0.186138 -0.14542,-0.30829 -0.0756,-0.122153 -0.1745,-0.191955 -0.0989,-0.07562 -0.22686,-0.104702 -0.12796,-0.02908 -0.30247,-0.02908 z m 7.28263,5.386354 q 0.19777,0 0.37227,-0.02327 0.18032,-0.02908 0.31411,-0.110519 0.13379,-0.08144 0.20941,-0.238489 0.0814,-0.16287 0.0814,-0.424626 v -3.775101 q 0,-0.261756 -0.0814,-0.41881 -0.0756,-0.16287 -0.20941,-0.250122 -0.13379,-0.08725 -0.31411,-0.116336 -0.1745,-0.02908 -0.37227,-0.02908 h -0.0349 v -0.500244 h 2.12895 v 5.031529 q 0,0.279206 0.0756,0.447893 0.0814,0.168687 0.20941,0.261756 0.13378,0.08725 0.31411,0.116336 0.18032,0.02908 0.37809,0.02908 h 0.15705 v 0.500244 h -3.38537 v -0.500244 z m 0.80853,-7.817775 q 0,-0.209405 0.0523,-0.349008 0.0524,-0.139603 0.14542,-0.226855 0.0931,-0.08725 0.21523,-0.122153 0.12215,-0.0349 0.26757,-0.0349 0.1396,0 0.26175,0.0349 0.12216,0.0349 0.20941,0.122153 0.0931,0.08725 0.14542,0.226855 0.0582,0.139603 0.0582,0.349008 0,0.209405 -0.0582,0.349008 -0.0523,0.139603 -0.14542,0.226855 -0.0872,0.08725 -0.20941,0.127969 -0.12215,0.0349 -0.26175,0.0349 -0.14542,0 -0.26757,-0.0349 -0.12216,-0.04072 -0.21523,-0.127969 -0.0931,-0.08725 -0.14542,-0.226855 -0.0523,-0.139603 -0.0523,-0.349008 z m 5.94477,8.434355 q -0.59331,0 -1.09356,-0.18032 -0.50024,-0.186138 -0.86088,-0.58168 -0.36064,-0.395542 -0.56423,-1.012123 -0.19777,-0.622397 -0.19777,-1.500733 0,-0.953955 0.19777,-1.593803 0.20359,-0.645664 0.55841,-1.035389 0.36064,-0.389726 0.84344,-0.552596 0.48861,-0.16287 1.05284,-0.16287 0.37227,0 0.73873,0.07562 0.37227,0.0698 0.66893,0.221038 0.29666,0.151237 0.4828,0.383909 0.18613,0.226855 0.18613,0.535145 0,0.412993 -0.26757,0.58168 -0.26757,0.168687 -0.7969,0.168687 0,-0.279206 -0.0465,-0.529329 -0.0465,-0.250122 -0.16287,-0.436259 -0.11051,-0.191955 -0.30829,-0.296657 -0.19195,-0.110519 -0.49442,-0.110519 -0.34319,0 -0.6224,0.127969 -0.27339,0.12797 -0.47116,0.442077 -0.19777,0.314107 -0.30247,0.843436 -0.10471,0.529328 -0.10471,1.326229 0,1.268062 0.41881,1.890459 0.42463,0.622397 1.3844,0.622397 0.5526,0 0.96559,-0.232671 0.41299,-0.232672 0.61658,-0.599131 0.0872,0.0698 0.14542,0.186138 0.0582,0.116336 0.0582,0.279206 0,0.203588 -0.12797,0.407176 -0.12797,0.203588 -0.38391,0.366458 -0.25012,0.162871 -0.62822,0.261756 -0.37809,0.104702 -0.88415,0.104702 z m 5.76444,-5.979667 q -0.66311,0 -1.02375,0.540962 -0.35483,0.535146 -0.41881,1.570536 h 2.73971 q 0,-0.471161 -0.0698,-0.860886 -0.0698,-0.389726 -0.22104,-0.668932 -0.15124,-0.279206 -0.40136,-0.430443 -0.2443,-0.151237 -0.60495,-0.151237 z m 0.14542,5.979667 q -0.64566,0 -1.16335,-0.215221 -0.51188,-0.221038 -0.86671,-0.639848 -0.35482,-0.418809 -0.54678,-1.023756 -0.18613,-0.610764 -0.18613,-1.384398 0,-1.66942 0.68638,-2.512856 0.68638,-0.843435 1.95444,-0.843435 0.57586,0 1.03539,0.18032 0.45953,0.180321 0.77945,0.540962 0.31993,0.354825 0.48861,0.88997 0.17451,0.529329 0.17451,1.233161 v 0.546779 h -3.96706 q 0.0116,0.651481 0.12797,1.122642 0.12215,0.465344 0.34319,0.767817 0.22686,0.302474 0.5526,0.447893 0.32574,0.139604 0.75036,0.139604 0.3083,0 0.57005,-0.0698 0.26757,-0.0698 0.4828,-0.186137 0.21522,-0.116336 0.37809,-0.261756 0.16868,-0.151237 0.27339,-0.314107 0.0814,0.0349 0.15123,0.14542 0.0756,0.110519 0.0756,0.261755 0,0.180321 -0.12797,0.389726 -0.12797,0.203588 -0.38972,0.378092 -0.26176,0.174504 -0.6573,0.290839 -0.38973,0.116336 -0.91906,0.116336 z m 5.45616,0 q -0.44789,0 -0.81435,-0.08143 -0.36064,-0.07562 -0.61658,-0.232672 -0.25594,-0.16287 -0.39554,-0.395542 -0.13961,-0.238488 -0.13961,-0.552596 0,-0.238488 0.0756,-0.395542 0.0814,-0.16287 0.19196,-0.255939 0.11633,-0.09307 0.2443,-0.127969 0.13379,-0.04072 0.23849,-0.04072 0,0.314107 0.064,0.587497 0.064,0.273389 0.21523,0.482794 0.15123,0.203588 0.39554,0.32574 0.25012,0.116336 0.61076,0.116336 0.31993,0 0.56423,-0.07562 0.24431,-0.08143 0.40718,-0.221038 0.16868,-0.14542 0.25594,-0.343191 0.0873,-0.203588 0.0873,-0.442077 0,-0.221038 -0.0698,-0.378092 -0.064,-0.16287 -0.23268,-0.302473 -0.16287,-0.139603 -0.44789,-0.285023 -0.28502,-0.14542 -0.71546,-0.331558 -0.45953,-0.203587 -0.80272,-0.389725 -0.33738,-0.191954 -0.55842,-0.412993 -0.22103,-0.221038 -0.33155,-0.500244 -0.11052,-0.285023 -0.11052,-0.674748 0,-0.407176 0.15705,-0.721283 0.16287,-0.314107 0.45953,-0.523512 0.29666,-0.215221 0.70965,-0.325741 0.41299,-0.110519 0.91905,-0.110519 0.42463,0 0.75037,0.08725 0.32574,0.08725 0.54678,0.238489 0.22104,0.14542 0.33155,0.349008 0.11052,0.197771 0.11052,0.418809 0,0.325741 -0.22685,0.523512 -0.22104,0.191954 -0.63403,0.191954 0,-0.59913 -0.25012,-0.930687 -0.24431,-0.331558 -0.77364,-0.331558 -0.30247,0 -0.51769,0.0698 -0.21522,0.0698 -0.35483,0.197771 -0.13378,0.127969 -0.19777,0.302473 -0.064,0.174504 -0.064,0.383909 0,0.226855 0.0814,0.395542 0.0814,0.16287 0.25594,0.302473 0.18032,0.139604 0.45953,0.27339 0.28502,0.127969 0.68056,0.29084 0.47116,0.197771 0.80854,0.389725 0.33737,0.191954 0.55259,0.418809 0.22104,0.226856 0.32574,0.511879 0.10471,0.285023 0.10471,0.657298 0,0.465343 -0.16869,0.814351 -0.16869,0.349008 -0.47698,0.587497 -0.30829,0.232672 -0.74455,0.349007 -0.43044,0.116336 -0.95977,0.116336 z"
           id="path8" /></g></g></g><style
     type="text/css"
     id="style1">
	.st0{fill:#C80000;}
	.st1{fill:#FFFFFF;}
	.st2{fill:#231F20;}
</style></svg>
